  0
SECTION
  2
HEADER
  9
$ACADVER
  1
AC1009
  9
$INSBASE
 10
0.0
 20
0.0
 30
0.0
  9
$EXTMIN
 10
-0.2000000000000001
 20
0.0
 30
0.0
  9
$EXTMAX
 10
34.5
 20
23.0
 30
0.0
  9
$LIMMIN
 10
0.0
 20
0.0
  9
$LIMMAX
 10
12.0
 20
9.0
  9
$ORTHOMODE
 70
     0
  9
$REGENMODE
 70
     1
  9
$FILLMODE
 70
     1
  9
$QTEXTMODE
 70
     0
  9
$MIRRTEXT
 70
     0
  9
$DRAGMODE
 70
     2
  9
$LTSCALE
 40
1.0
  9
$OSMODE
 70
    37
  9
$ATTMODE
 70
     1
  9
$TEXTSIZE
 40
0.2
  9
$TRACEWID
 40
0.05
  9
$TEXTSTYLE
  7
STANDARD
  9
$CLAYER
  8
0
  9
$CELTYPE
  6
BYLAYER
  9
$CECOLOR
 62
   256
  9
$DIMSCALE
 40
1.0
  9
$DIMASZ
 40
0.18
  9
$DIMEXO
 40
0.0625
  9
$DIMDLI
 40
0.38
  9
$DIMRND
 40
0.0
  9
$DIMDLE
 40
0.0
  9
$DIMEXE
 40
0.18
  9
$DIMTP
 40
0.0
  9
$DIMTM
 40
0.0
  9
$DIMTXT
 40
0.18
  9
$DIMCEN
 40
0.09
  9
$DIMTSZ
 40
0.0
  9
$DIMTOL
 70
     0
  9
$DIMLIM
 70
     0
  9
$DIMTIH
 70
     1
  9
$DIMTOH
 70
     1
  9
$DIMSE1
 70
     0
  9
$DIMSE2
 70
     0
  9
$DIMTAD
 70
     0
  9
$DIMZIN
 70
     0
  9
$DIMBLK
  1

  9
$DIMASO
 70
     1
  9
$DIMSHO
 70
     1
  9
$DIMPOST
  1

  9
$DIMAPOST
  1

  9
$DIMALT
 70
     0
  9
$DIMALTD
 70
     2
  9
$DIMALTF
 40
25.3999999999999986
  9
$DIMLFAC
 40
1.0
  9
$DIMTOFL
 70
     0
  9
$DIMTVP
 40
0.0
  9
$DIMTIX
 70
     0
  9
$DIMSOXD
 70
     0
  9
$DIMSAH
 70
     0
  9
$DIMBLK1
  1

  9
$DIMBLK2
  1

  9
$DIMSTYLE
  2
STANDARD
  9
$DIMCLRD
 70
     0
  9
$DIMCLRE
 70
     0
  9
$DIMCLRT
 70
     0
  9
$DIMTFAC
 40
1.0
  9
$DIMGAP
 40
0.09
  9
$LUNITS
 70
     4
  9
$LUPREC
 70
     4
  9
$SKETCHINC
 40
0.1
  9
$FILLETRAD
 40
0.0
  9
$AUNITS
 70
     0
  9
$AUPREC
 70
     0
  9
$MENU
  1
.
  9
$ELEVATION
 40
0.0
  9
$PELEVATION
 40
0.0
  9
$THICKNESS
 40
0.0
  9
$LIMCHECK
 70
     0
  9
$BLIPMODE
 70
     0
  9
$CHAMFERA
 40
0.0
  9
$CHAMFERB
 40
0.0
  9
$SKPOLY
 70
     0
  9
$TDCREATE
 40
2457653.7913888888433576
  9
$TDUPDATE
 40
2457653.8062384258955717
  9
$TDINDWG
 40
0.0148611111
  9
$TDUSRTIMER
 40
0.014849537
  9
$USRTIMER
 70
     1
  9
$ANGBASE
 50
0.0
  9
$ANGDIR
 70
     0
  9
$PDMODE
 70
     0
  9
$PDSIZE
 40
0.0
  9
$PLINEWID
 40
0.0
  9
$COORDS
 70
     1
  9
$SPLFRAME
 70
     0
  9
$SPLINETYPE
 70
     6
  9
$SPLINESEGS
 70
     8
  9
$ATTDIA
 70
     1
  9
$ATTREQ
 70
     1
  9
$HANDLING
 70
     1
  9
$HANDSEED
  5
4DD
  9
$SURFTAB1
 70
     6
  9
$SURFTAB2
 70
     6
  9
$SURFTYPE
 70
     6
  9
$SURFU
 70
     6
  9
$SURFV
 70
     6
  9
$UCSNAME
  2

  9
$UCSORG
 10
0.0
 20
0.0
 30
0.0
  9
$UCSXDIR
 10
1.0
 20
0.0
 30
0.0
  9
$UCSYDIR
 10
0.0
 20
1.0
 30
0.0
  9
$PUCSNAME
  2

  9
$PUCSORG
 10
0.0
 20
0.0
 30
0.0
  9
$PUCSXDIR
 10
1.0
 20
0.0
 30
0.0
  9
$PUCSYDIR
 10
0.0
 20
1.0
 30
0.0
  9
$USERI1
 70
     0
  9
$USERI2
 70
     0
  9
$USERI3
 70
     0
  9
$USERI4
 70
     0
  9
$USERI5
 70
     0
  9
$USERR1
 40
0.0
  9
$USERR2
 40
0.0
  9
$USERR3
 40
0.0
  9
$USERR4
 40
0.0
  9
$USERR5
 40
0.0
  9
$WORLDVIEW
 70
     1
  9
$SHADEDGE
 70
     3
  9
$SHADEDIF
 70
    70
  9
$TILEMODE
 70
     1
  9
$MAXACTVP
 70
    64
  9
$PLIMCHECK
 70
     0
  9
$PEXTMIN
 10
1.0000000000000000E+20
 20
1.0000000000000000E+20
 30
1.0000000000000000E+20
  9
$PEXTMAX
 10
-1.0000000000000000E+20
 20
-1.0000000000000000E+20
 30
-1.0000000000000000E+20
  9
$PLIMMIN
 10
-0.752334686935257
 20
-0.5022431411856947
  9
$PLIMMAX
 10
35.2476662742483029
 20
23.4977558976307392
  9
$UNITMODE
 70
     0
  9
$VISRETAIN
 70
     1
  9
$PLINEGEN
 70
     0
  9
$PSLTSCALE
 70
     1
  0
ENDSEC
  0
SECTION
  2
TABLES
  0
TABLE
  2
VPORT
 70
     1
  0
VPORT
  2
*ACTIVE
 70
     0
 10
0.0
 20
0.0
 11
1.0
 21
1.0
 12
25.5298805168953393
 22
11.5000000535510392
 13
0.0
 23
0.0
 14
0.5
 24
0.5
 15
0.5
 25
0.5
 16
0.0
 26
0.0
 36
1.0
 17
0.0
 27
0.0
 37
0.0
 40
26.2567564808549605
 41
1.972332015810276
 42
50.0
 43
0.0
 44
0.0
 50
0.0
 51
0.0
 71
     0
 72
  1000
 73
     1
 74
     3
 75
     0
 76
     0
 77
     0
 78
     0
  0
ENDTAB
  0
TABLE
  2
LTYPE
 70
     2
  0
LTYPE
  2
CONTINUOUS
 70
     0
  3
Solid line
 72
    65
 73
     0
 40
0.0
  0
ENDTAB
  0
TABLE
  2
LAYER
 70
     1
  0
LAYER
  2
0
 70
     0
 62
     7
  6
CONTINUOUS
  0
ENDTAB
  0
TABLE
  2
STYLE
 70
     2
  0
STYLE
  2
STANDARD
 70
     0
 40
0.0
 41
1.0
 50
0.0
 71
     0
 42
0.2
  3
txt.shx
  4

  0
STYLE
  2
ROMAN
 70
     0
 40
0.0
 41
1.0
 50
0.0
 71
     0
 42
0.1
  3
romans.shx
  4

  0
ENDTAB
  0
TABLE
  2
VIEW
 70
     1
  0
ENDTAB
  0
TABLE
  2
UCS
 70
     0
  0
ENDTAB
  0
TABLE
  2
APPID
 70
     4
  0
APPID
  2
ACAD
 70
     0
  0
APPID
  2
ACAD_EXEMPT_FROM_CAD_STANDARDS
 70
     0
  0
APPID
  2
ACAD_NAV_VCDISPLAY
 70
     0
  0
APPID
  2
ACAD_MLEADERVER
 70
     0
  0
ENDTAB
  0
TABLE
  2
DIMSTYLE
 70
     1
  0
DIMSTYLE
  2
STANDARD
 70
     0
  3

  4

  5

  6

  7

 40
1.0
 41
0.18
 42
0.0625
 43
0.38
 44
0.18
 45
0.0
 46
0.0
 47
0.0
 48
0.0
140
0.18
141
0.09
142
0.0
143
25.3999999999999986
144
1.0
145
0.0
146
1.0
147
0.09
 71
     0
 72
     0
 73
     1
 74
     1
 75
     0
 76
     0
 77
     0
 78
     0
170
     0
171
     2
172
     0
173
     0
174
     0
175
     0
176
     0
177
     0
178
     0
  0
ENDTAB
  0
ENDSEC
  0
SECTION
  2
BLOCKS
  0
BLOCK
  8
0
  2
$MODEL_SPACE
 70
     2
 10
0.0
 20
0.0
 30
0.0
  3
$MODEL_SPACE
  1

  0
ENDBLK
  5
9
  8
0
  0
BLOCK
 67
     1
  8
0
  2
$PAPER_SPACE
 70
     0
 10
0.0
 20
0.0
 30
0.0
  3
$PAPER_SPACE
  1

  0
ENDBLK
  5
E
 67
     1
  8
0
  0
BLOCK
  8
0
  2
*U0
 70
     1
 10
0.0
 20
0.0
 30
0.0
  3
*U0
  1

  0
TEXT
  5
4D2
  8
0
 10
6.9015406584915517
 20
18.3597937580188386
 30
0.0
 40
0.2
  1
我輩は猫である。
  0
TEXT
  5
4D3
  8
0
 10
6.8856315675824611
 20
17.9810058792309597
 30
0.0
 40
0.2
  1
ワガハイハネコデアル
  0
TEXT
  5
4D4
  8
0
 10
6.9197224766733711
 20
17.6476725458976311
 30
0.0
 40
0.2
  1
wagahai
  0
TEXT
  5
4D5
  8
0
 10
8.1863891433400386
 20
17.6476725458976311
 30
0.0
 40
0.2
  1
　
  0
TEXT
  5
4D6
  8
0
 10
8.3795709615218552
 20
17.6476725458976311
 30
0.0
 40
0.2
  1
wa
  0
TEXT
  5
4D7
  8
0
 10
8.7795709615218573
 20
17.6476725458976311
 30
0.0
 40
0.2
  1
　
  0
TEXT
  5
4D8
  8
0
 10
8.9727527797036757
 20
17.6476725458976311
 30
0.0
 40
0.2
  1
Neko
  0
TEXT
  5
4D9
  8
0
 10
9.7727527797036764
 20
17.6476725458976311
 30
0.0
 40
0.2
  1
　
  0
TEXT
  5
4DA
  8
0
 10
9.9659345978854947
 20
17.6476725458976311
 30
0.0
 40
0.2
  1
dearu
  0
ENDBLK
  5
4DC
  8
0
  0
ENDSEC
  0
SECTION
  2
ENTITIES
  0
POLYLINE
  5
24
  8
0
 66
     1
 10
0.0
 20
0.0
 30
0.0
 70
     1
 40
0.1
 41
0.1
  0
VERTEX
  5
43E
  8
0
 10
1.5
 20
0.5
 30
0.0
  0
VERTEX
  5
43F
  8
0
 10
33.0
 20
0.5
 30
0.0
 42
0.4142135623730951
  0
VERTEX
  5
440
  8
0
 10
34.0
 20
1.5
 30
0.0
  0
VERTEX
  5
441
  8
0
 10
34.0
 20
21.5
 30
0.0
 42
0.4142135623730951
  0
VERTEX
  5
442
  8
0
 10
33.0
 20
22.5
 30
0.0
  0
VERTEX
  5
443
  8
0
 10
1.5
 20
22.5
 30
0.0
 42
0.4142135623730951
  0
VERTEX
  5
444
  8
0
 10
0.5
 20
21.5
 30
0.0
  0
VERTEX
  5
445
  8
0
 10
0.5
 20
1.5
 30
0.0
 42
0.4142135623730951
  0
SEQEND
  5
446
  8
0
  0
LINE
  5
25
  8
0
 10
34.5
 20
23.0
 30
0.0
 11
0.0
 21
23.0
 31
0.0
  0
LINE
  5
26
  8
0
 10
0.0
 20
0.0
 30
0.0
 11
34.5
 21
0.0
 31
0.0
  0
LINE
  5
27
  8
0
 10
0.0
 20
23.0
 30
0.0
 11
0.0
 21
0.0
 31
0.0
  0
ATTDEF
  5
28
  8
0
 62
     0
 10
-0.05
 20
3.0
 30
0.0
 40
0.15
  1

 50
90.0
  7
ROMAN
  3
改訂日:
  2
REVDATE
 70
     8
  0
ATTDEF
  5
2A
  8
0
 62
     0
 10
-0.05
 20
0.0
 30
0.0
 40
0.15
  1

 50
90.0
  7
ROMAN
  3
監修者:
  2
USER
 70
     8
  0
ATTDEF
  5
2B
  8
0
 62
     0
 10
-0.05
 20
6.0
 30
0.0
 40
0.15
  1

 50
90.0
  7
ROMAN
  3
ファイル名:
  2
FNAME
 70
     8
  0
POLYLINE
  5
2C
  8
0
 66
     1
 10
0.0
 20
0.0
 30
0.0
 70
     1
 40
0.05
 41
0.05
  0
VERTEX
  5
447
  8
0
 10
30.0
 20
7.5
 30
0.0
  0
VERTEX
  5
448
  8
0
 10
33.0
 20
7.5
 30
0.0
 42
0.4142135623730951
  0
VERTEX
  5
449
  8
0
 10
33.25
 20
7.75
 30
0.0
  0
VERTEX
  5
44A
  8
0
 10
33.25
 20
21.5
 30
0.0
 42
0.4142135623730951
  0
VERTEX
  5
44B
  8
0
 10
33.0
 20
21.75
 30
0.0
  0
VERTEX
  5
44C
  8
0
 10
30.0
 20
21.75
 30
0.0
 42
0.4142135623730951
  0
VERTEX
  5
44D
  8
0
 10
29.75
 20
21.5
 30
0.0
  0
VERTEX
  5
44E
  8
0
 10
29.75
 20
7.75
 30
0.0
 42
0.4142135623730951
  0
SEQEND
  5
44F
  8
0
  0
POLYLINE
  5
2D
  8
0
 66
     1
 10
0.0
 20
0.0
 30
0.0
 70
     1
 40
0.05
 41
0.05
  0
VERTEX
  5
450
  8
0
 10
30.0
 20
1.0
 30
0.0
  0
VERTEX
  5
451
  8
0
 10
33.0
 20
1.0
 30
0.0
 42
0.4142135623730951
  0
VERTEX
  5
452
  8
0
 10
33.5
 20
1.5
 30
0.0
  0
VERTEX
  5
453
  8
0
 10
33.5
 20
21.5
 30
0.0
 42
0.4142135623730951
  0
VERTEX
  5
454
  8
0
 10
33.0
 20
22.0
 30
0.0
  0
VERTEX
  5
455
  8
0
 10
30.0
 20
22.0
 30
0.0
 42
0.4142135623730951
  0
VERTEX
  5
456
  8
0
 10
29.5
 20
21.5
 30
0.0
  0
VERTEX
  5
457
  8
0
 10
29.5
 20
1.5
 30
0.0
 42
0.4142135623730951
  0
SEQEND
  5
458
  8
0
  0
LINE
  5
2E
  8
0
 10
34.5
 20
0.0
 30
0.0
 11
34.5
 21
23.0
 31
0.0
  0
POLYLINE
  5
2F
  8
0
 66
     1
 10
0.0
 20
0.0
 30
0.0
 70
     1
 40
0.05
 41
0.05
  0
VERTEX
  5
459
  8
0
 10
30.0
 20
3.0
 30
0.0
  0
VERTEX
  5
45A
  8
0
 10
33.0
 20
3.0
 30
0.0
 42
0.4142135623730951
  0
VERTEX
  5
45B
  8
0
 10
33.25
 20
3.25
 30
0.0
  0
VERTEX
  5
45C
  8
0
 10
33.25
 20
4.75
 30
0.0
 42
0.4142135623730951
  0
VERTEX
  5
45D
  8
0
 10
33.0
 20
5.0
 30
0.0
  0
VERTEX
  5
45E
  8
0
 10
30.0
 20
5.0
 30
0.0
 42
0.4142135623730951
  0
VERTEX
  5
45F
  8
0
 10
29.75
 20
4.75
 30
0.0
  0
VERTEX
  5
460
  8
0
 10
29.75
 20
3.25
 30
0.0
 42
0.4142135623730951
  0
SEQEND
  5
461
  8
0
  0
POLYLINE
  5
30
  8
0
 66
     1
 10
0.0
 20
0.0
 30
0.0
 40
0.025
 41
0.025
  0
VERTEX
  5
462
  8
0
 10
29.75
 20
1.75
 30
0.0
  0
VERTEX
  5
463
  8
0
 10
31.75
 20
1.75
 30
0.0
  0
SEQEND
  5
464
  8
0
  0
POLYLINE
  5
31
  8
0
 66
     1
 10
0.0
 20
0.0
 30
0.0
 40
0.025
 41
0.025
  0
VERTEX
  5
465
  8
0
 10
29.75
 20
2.25
 30
0.0
  0
VERTEX
  5
466
  8
0
 10
31.75
 20
2.25
 30
0.0
  0
SEQEND
  5
467
  8
0
  0
POLYLINE
  5
32
  8
0
 66
     1
 10
0.0
 20
0.0
 30
0.0
 70
     1
 40
0.05
 41
0.05
  0
VERTEX
  5
468
  8
0
 10
30.0
 20
1.25
 30
0.0
  0
VERTEX
  5
469
  8
0
 10
33.0
 20
1.25
 30
0.0
 42
0.4142135623730951
  0
VERTEX
  5
46A
  8
0
 10
33.25
 20
1.5
 30
0.0
  0
VERTEX
  5
46B
  8
0
 10
33.25
 20
2.5
 30
0.0
 42
0.4142135623730951
  0
VERTEX
  5
46C
  8
0
 10
33.0
 20
2.75
 30
0.0
  0
VERTEX
  5
46D
  8
0
 10
30.0
 20
2.75
 30
0.0
 42
0.4142135623730951
  0
VERTEX
  5
46E
  8
0
 10
29.75
 20
2.5
 30
0.0
  0
VERTEX
  5
46F
  8
0
 10
29.75
 20
1.5
 30
0.0
 42
0.4142135623730951
  0
SEQEND
  5
470
  8
0
  0
TEXT
  5
33
  8
0
 10
29.9054000000000002
 20
1.6131999999999991
 30
0.0
 40
0.065
  1
尺度
  7
ROMAN
  0
TEXT
  5
34
  8
0
 10
29.9054000000000002
 20
2.5846
 30
0.0
 40
0.065
  1
プロジェクト
  7
ROMAN
  0
TEXT
  5
35
  8
0
 10
29.9054000000000002
 20
2.0988999999999991
 30
0.0
 40
0.065
  1
日付
  7
ROMAN
  0
POLYLINE
  5
36
  8
0
 66
     1
 10
0.0
 20
0.0
 30
0.0
 40
0.025
 41
0.025
  0
VERTEX
  5
471
  8
0
 10
31.75
 20
1.25
 30
0.0
  0
VERTEX
  5
472
  8
0
 10
31.75
 20
2.75
 30
0.0
  0
SEQEND
  5
473
  8
0
  0
TEXT
  5
37
  8
0
 10
31.8899000000000008
 20
2.5846
 30
0.0
 40
0.065
  1
シート
  7
ROMAN
  0
POLYLINE
  5
38
  8
0
 66
     1
 10
0.0
 20
0.0
 30
0.0
 40
0.025
 41
0.025
  0
VERTEX
  5
474
  8
0
 10
32.625
 20
7.5
 30
0.0
  0
VERTEX
  5
475
  8
0
 10
32.625
 20
8.625
 30
0.0
  0
SEQEND
  5
476
  8
0
  0
TEXT
  5
39
  8
0
 10
30.9554428571428595
 20
7.6534000000000004
 30
0.0
 40
0.1
  1
改訂/備考
  7
ROMAN
 72
     1
 11
31.4983000000000004
 21
7.7034000000000002
 31
0.0
 73
     2
  0
POLYLINE
  5
3A
  8
0
 66
     1
 10
0.0
 20
0.0
 30
0.0
 40
0.025
 41
0.025
  0
VERTEX
  5
477
  8
0
 10
30.25
 20
7.5
 30
0.0
  0
VERTEX
  5
478
  8
0
 10
30.25
 20
8.625
 30
0.0
  0
SEQEND
  5
479
  8
0
  0
POLYLINE
  5
3B
  8
0
 66
     1
 10
0.0
 20
0.0
 30
0.0
 70
     1
 40
0.05
 41
0.05
  0
VERTEX
  5
47A
  8
0
 10
30.0
 20
5.25
 30
0.0
  0
VERTEX
  5
47B
  8
0
 10
33.0
 20
5.25
 30
0.0
 42
0.4142135623730951
  0
VERTEX
  5
47C
  8
0
 10
33.25
 20
5.5
 30
0.0
  0
VERTEX
  5
47D
  8
0
 10
33.25
 20
7.0
 30
0.0
 42
0.4142135623730951
  0
VERTEX
  5
47E
  8
0
 10
33.0
 20
7.25
 30
0.0
  0
VERTEX
  5
47F
  8
0
 10
30.0
 20
7.25
 30
0.0
 42
0.4142135623730951
  0
VERTEX
  5
480
  8
0
 10
29.75
 20
7.0
 30
0.0
  0
VERTEX
  5
481
  8
0
 10
29.75
 20
5.5
 30
0.0
 42
0.4142135623730951
  0
SEQEND
  5
482
  8
0
  0
TEXT
  5
3C
  8
0
 10
29.9054000000000002
 20
4.8211000000000004
 30
0.0
 40
0.065
  1
プロジェクト名と住所
  7
ROMAN
  0
TEXT
  5
3D
  8
0
 10
29.9054000000000002
 20
7.0711000000000004
 30
0.0
 40
0.065
  1
会社名と住所
  7
ROMAN
  0
POLYLINE
  5
3E
  8
0
 66
     1
 10
0.0
 20
0.0
 30
0.0
 40
0.025
 41
0.025
  0
VERTEX
  5
483
  8
0
 10
29.75
 20
8.625
 30
0.0
  0
VERTEX
  5
484
  8
0
 10
33.25
 20
8.625
 30
0.0
  0
SEQEND
  5
485
  8
0
  0
POLYLINE
  5
3F
  8
0
 66
     1
 10
0.0
 20
0.0
 30
0.0
 40
0.025
 41
0.025
  0
VERTEX
  5
486
  8
0
 10
29.75
 20
8.25
 30
0.0
  0
VERTEX
  5
487
  8
0
 10
33.25
 20
8.25
 30
0.0
  0
SEQEND
  5
488
  8
0
  0
POLYLINE
  5
40
  8
0
 66
     1
 10
0.0
 20
0.0
 30
0.0
 40
0.025
 41
0.025
  0
VERTEX
  5
489
  8
0
 10
29.75
 20
7.875
 30
0.0
  0
VERTEX
  5
48A
  8
0
 10
33.25
 20
7.875
 30
0.0
  0
SEQEND
  5
48B
  8
0
  0
TEXT
  5
41
  8
0
 10
29.8921714285714302
 20
7.6534000000000004
 30
0.0
 40
0.1
  1
No.
  7
ROMAN
 72
     1
 11
30.0136000000000003
 21
7.7034000000000002
 31
0.0
 73
     2
  0
TEXT
  5
42
  8
0
 10
32.7647523809523804
 20
7.6534000000000004
 30
0.0
 40
0.1
  1
日付
  7
ROMAN
 72
     1
 11
32.933799999999998
 21
7.7034000000000002
 31
0.0
 73
     2
  0
TEXT
  5
43
  8
0
 10
30.9625857142857193
 20
21.5077999999999996
 30
0.0
 40
0.1
  1
一般注記
  7
ROMAN
 72
     1
 11
31.4983000000000004
 21
21.5578000000000003
 31
0.0
 73
     2
  0
POLYLINE
  5
44
  8
0
 66
     1
 10
0.0
 20
0.0
 30
0.0
 40
0.025
 41
0.025
  0
VERTEX
  5
48C
  8
0
 10
29.75
 20
21.375
 30
0.0
  0
VERTEX
  5
48D
  8
0
 10
33.25
 20
21.375
 30
0.0
  0
SEQEND
  5
48E
  8
0
  0
INSERT
  5
E4
  8
0
  2
*U0
 10
0.0
 20
0.0
 30
0.0
  0
VIEWPORT
  5
52
 67
     1
  8
0
 10
17.2476657936565196
 20
11.4977563782225207
 30
0.0
 40
36.3373219673022589
 41
27.1250431586904206
 68
     1
 69
     1
1001
ACAD
1000
MVIEW
1002
{
1070
    16
1010
0.0
1020
0.0
1030
0.0
1010
0.0
1020
0.0
1030
1.0
1040
0.0
1040
27.1250431586904206
1040
17.2476657936565196
1040
11.4977563782225207
1040
50.0
1040
0.0
1040
0.0
1070
     0
1070
  1000
1070
     1
1070
     3
1070
     0
1070
     0
1070
     0
1070
     0
1040
0.0
1040
0.0
1040
0.0
1040
0.5
1040
0.5
1040
0.5
1040
0.5
1070
     0
1002
{
1002
}
1002
}
  0
ENDSEC
  0
EOF
